PathFileType	4	(X/Y/Z)	Run_400 01
DataRate	CameraRate	NumFrames	NumMarkers	Units	OrigDataRate	OrigDataStartFrame	OrigNumFrames
120	120	8	42	mm	120	30	128
Frame#	Time	LASI			RASI			LPSI			RPSI			RTH1			RTH2			RTH3			LTH1			LTH2			LTH3			RTB1			RTB2			RTB3			LTB1			LTB2			LTB3			RCAL			RTOE			RMT5			LCAL			LTOE			LMT5			LACR			RACR			CLAV			C7			RUA1			RUA2			RUA3			RLEL			RMEL			LUA1			LUA2			LUA3			LLEL			LMEL			RFAsuperior			RFAradius			RFAulna			LFAsuperior			LFAradius			LFAulna			
		X1	Y1	Z1	X2	Y2	Z2	X3	Y3	Z3	X4	Y4	Z4	X5	Y5	Z5	X6	Y6	Z6	X7	Y7	Z7	X8	Y8	Z8	X9	Y9	Z9	X10	Y10	Z10	X11	Y11	Z11	X12	Y12	Z12	X13	Y13	Z13	X14	Y14	Z14	X15	Y15	Z15	X16	Y16	Z16	X17	Y17	Z17	X18	Y18	Z18	X19	Y19	Z19	X20	Y20	Z20	X21	Y21	Z21	X22	Y22	Z22	X23	Y23	Z23	X24	Y24	Z24	X25	Y25	Z25	X26	Y26	Z26	X27	Y27	Z27	X28	Y28	Z28	X29	Y29	Z29	X30	Y30	Z30	X31	Y31	Z31	X32	Y32	Z32	X33	Y33	Z33	X34	Y34	Z34	X35	Y35	Z35	X36	Y36	Z36	X37	Y37	Z37	X38	Y38	Z38	X39	Y39	Z39	X40	Y40	Z40	X41	Y41	Z41	X42	Y42	Z42	

30	0.325	767.429495	1043.365953	-476.279304	747.562043	1040.535413	-242.798683	599.941117	1071.797654	-429.242341	590.269147	1074.270971	-339.019788	625.518825	864.04814	-204.058319	627.426589	730.7119	-216.687118	495.661933	656.256258	-231.346997	788.170555	919.375253	-523.1608	890.679381	861.4809729999999	-501.155821	905.5131260000001	707.2233649999999	-493.342954	441.098456	442.796171	-279.671938	366.564504	418.614685	-228.549507	317.339414	309.115337	-293.596083	963.940978	494.091178	-410.811841	886.989545	409.503326	-466.383524	860.51594	331.394889	-392.509492	161.741133	299.504942	-305.869177	259.329799	103.771389	-322.412926	211.677495	107.999078	-246.554394	708.790803	250.034965	-404.677739	915.971175	189.645335	-372.321313	892.619521	165.086633	-460.154483	692.986439	1506.295677	-512.64582	761.813302	1472.561787	-158.974708	827.745044	1446.121307	-335.020699	702.652684	1536.251681	-329.743436	771.478703	1371.609131	-91.586645	800.9101470000001	1306.510654	-96.210408	727.965914	1285.587566	-20.463758	775.416131	1215.223272	3.817913	707.586395	1171.333318	-39.56233	637.7543449999999	1484.469363	-567.6432119999999	563.816702	1460.805435	-554.608718	587.674904	1429.938411	-630.956594	509.473981	1365.673019	-689.545417	449.813695	1351.361749	-625.454711	842.930379	1219.5125	-44.815459	939.135909	1219.938984	-180.365847	937.475882	1155.35613	-157.995789	560.639278	1316.641309	-680.458476	652.403017	1196.728181	-580.757481	612.068855	1157.745242	-615.77392	
31	0.333333	768.088249	1045.608096	-475.87504	749.980639	1045.623901	-244.260635	601.061221	1076.052617	-428.955379	592.051405	1078.827111	-339.102269	624.991357	867.99301	-203.551923	626.662022	734.213361	-214.290744	496.059679	659.797805	-230.121745	787.659915	920.092615	-524.141829	889.141163	859.726064	-502.538901	901.163641	705.439031	-492.018849	433.050526	447.360954	-278.825407	357.766918	426.769374	-227.554687	301.986489	321.30342	-292.825679	970.343149	490.497008	-409.566845	900.847395	398.659092	-463.494453	882.180783	319.149968	-388.564786	148.566742	322.0765	-305.418507	231.273609	118.92752	-320.671919	183.208014	126.953087	-244.063917	738.4439180000001	224.199867	-397.6025	950.712267	183.958223	-366.761372	928.764729	155.668264	-454.534558	691.610911	1508.591397	-512.64465	764.123144	1475.975616	-160.457726	828.252969	1448.858939	-336.780455	702.890561	1538.587342	-330.213694	775.015373	1375.812747	-92.80560699999999	804.664822	1310.443669	-96.40208199999999	731.562987	1290.583463	-20.205908	779.118751	1219.693111	3.652444	709.705527	1176.031889	-37.813122	636.204215	1488.069395	-566.883115	562.557607	1465.19661	-553.2706449999999	585.236519	1434.75382	-630.572082	505.513259	1371.236788	-688.735283	446.604418	1357.540711	-623.725283	845.302324	1223.619003	-46.961313	937.047183	1223.714789	-185.38034	936.09407	1159.211018	-163.439701	556.25826	1322.018576	-680.234762	648.4464840000001	1201.508564	-581.268149	607.544428	1162.632431	-615.574784	
32	0.341667	768.564734	1046.77045	-475.38677	752.568767	1049.694102	-245.672779	601.733249	1079.449915	-428.452635	594.005459	1082.359383	-339.137373	626.272814	870.465838	-202.87125	628.694477	735.891558	-213.202253	498.834371	661.277783	-228.81751	786.156923	919.488142	-525.937378	886.830583	856.098821	-504.384243	896.295968	702.303535	-491.515774	426.202354	451.284772	-277.759348	349.457819	435.239724	-226.873915	287.387937	334.395786	-292.36336	974.753463	486.244012	-408.050052	913.362156	387.872336	-460.647186	902.281034	307.829683	-384.585664	134.952801	345.173451	-305.698085	204.539318	136.827146	-319.976283	156.638534	149.021446	-241.64266	767.614945	200.541531	-390.263249	982.980593	179.972097	-361.495748	962.552873	148.322738	-449.26915	690.979689	1510.21297	-513.046862	766.083071	1478.79773	-161.890044	828.716304	1450.913548	-338.535124	703.320824	1540.330859	-330.882809	777.564427	1379.210516	-93.88772	807.6861290000001	1314.027491	-96.13514000000001	733.405825	1294.74357	-20.588592	781.606857	1223.382194	3.464171	711.071604	1179.936411	-36.592256	635.286079	1490.722622	-566.457332	561.809245	1467.933659	-552.198024	583.290436	1438.482951	-630.1561359999999	502.17021	1375.757757	-687.9134299999999	444.115835	1362.322002	-621.90569	846.833352	1226.556949	-48.704034	934.920031	1225.766995	-189.397298	934.177367	1161.354784	-168.071451	552.576472	1326.283791	-679.6725290000001	645.287844	1205.157162	-581.891152	603.861529	1166.35437	-615.465413	
33	0.35	768.829179	1047.035924	-474.887511	755.3190499999999	1052.492928	-246.994032	602.386525	1081.682071	-427.840093	596.11064	1084.604076	-339.075264	629.402506	871.154708	-202.110989	633.185845	735.590465	-213.629594	503.614631	660.7904140000001	-227.425646	783.787791	917.717746	-528.035388	884.095377	851.111327	-506.410243	890.775314	697.670554	-491.507701	420.819752	454.988083	-276.478304	342.119023	444.447064	-226.479096	274.130174	348.414326	-291.944651	977.26286	481.398969	-406.331253	924.1691080000001	377.539045	-457.783586	920.470453	297.773543	-380.415135	121.974283	369.039577	-306.303497	179.965625	157.271235	-319.534698	132.454654	173.393342	-239.25075	795.524825	179.422241	-382.915332	1012.181376	177.826666	-356.518537	993.380999	142.978014	-444.246234	691.122416	1511.176158	-513.868279	767.700881	1480.953809	-163.238077	829.079831	1452.23238	-340.169356	704.007595	1541.494397	-331.75087	778.935185	1381.761806	-94.670613	809.838387	1317.325581	-95.298259	733.575589	1297.940933	-21.464038	782.809142	1226.219956	3.236629	711.6786970000001	1183.067732	-36.063309	635.016114	1492.468834	-566.387378	561.591548	1469.206079	-551.396125	581.8513400000001	1441.123008	-629.703304	499.545119	1379.192473	-687.057998	442.369498	1365.660219	-620.042897	847.515697	1228.243708	-49.988675	932.906659	1226.100163	-192.419415	931.959303	1161.797846	-171.262385	549.712769	1329.379958	-679.119993	643.08019	1207.696948	-582.670605	601.158593	1168.928365	-615.476153	
34	0.358333	768.8258949999999	1046.614421	-474.40843	757.641087	1053.989384	-248.067191	603.297731	1082.447237	-427.168083	597.782009	1085.547559	-338.762308	634.11166	870.033205	-201.485419	639.479872	733.682461	-215.439692	510.0613	658.6038600000001	-226.031801	780.809886	914.874872	-529.75602	881.236577	844.983266	-508.178431	884.3560670000001	691.510579	-491.547837	417.183595	458.562732	-275.390934	336.58736	454.260377	-226.428796	262.711306	363.18345	-291.47737	978.083896	475.985481	-404.685965	932.823624	367.961736	-454.90357	936.328243	289.109832	-376.219369	110.964537	393.910876	-307.012169	157.725734	179.740366	-318.628992	110.791685	199.516377	-236.873006	821.231984	161.140068	-375.936615	1037.632582	177.396161	-352.046212	1020.543848	139.292652	-439.382538	691.900144	1511.444907	-515.077299	769.020122	1482.389123	-164.515133	829.314484	1452.757639	-341.668351	704.942017	1542.083129	-332.823636	779.111564	1383.506293	-95.16474700000001	811.00659	1320.282017	-94.01007	732.304747	1300.176838	-22.666255	782.666844	1228.18214	2.938643	711.456849	1185.511353	-36.248241	635.30013	1493.332912	-566.708638	561.870709	1469.26059	-550.850665	580.88062	1442.65915	-629.276023	497.661667	1381.467384	-686.2150349999999	441.299192	1367.55008	-618.267925	847.3323779999999	1228.691297	-50.823594	931.063441	1224.77567	-194.483218	929.53153	1160.62054	-172.656626	547.723315	1331.291592	-678.919056	641.961223	1209.204847	-583.717849	599.550747	1170.428527	-615.687646	
35	0.366667	768.5033550000001	1045.666574	-473.982559	758.643884	1054.314854	-248.671618	604.369012	1081.568952	-426.378021	598.140362	1085.338098	-337.983068	639.955197	867.386727	-201.173515	646.813591	730.808091	-218.048862	517.793185	655.143674	-224.776573	777.638672	911.027931	-530.627459	878.369643	837.837136	-509.551308	876.9422060000001	684.070894	-491.258615	415.423241	461.833366	-274.917196	333.565525	464.105739	-226.749412	253.502394	378.497429	-291.067038	977.5412229999999	470.102846	-403.38829	938.920028	359.251895	-452.129743	949.390756	281.699839	-372.42528	103.031928	419.861695	-307.788164	137.649041	203.703683	-316.905346	91.80388000000001	227.192793	-234.494592	843.660499	145.81701	-369.711741	1058.592396	178.051023	-348.447107	1043.279661	136.672486	-434.716987	693.0654469999999	1510.919962	-516.616617	770.093722	1483.075234	-165.79352	829.420045	1452.446774	-343.106453	706.025144	1542.074829	-334.113962	778.302069	1384.528296	-95.55170200000001	811.171838	1322.710371	-92.55793199999999	729.916005	1301.572243	-24.072367	781.174315	1229.286396	2.547419	710.2192659999999	1187.34971	-37.002786	635.980777	1493.281678	-567.471691	562.551687	1468.299697	-550.598166	580.313246	1443.03033	-629.004252	496.456676	1382.477128	-685.510616	440.773679	1367.989878	-616.776892	846.2603789999999	1227.994718	-51.237838	929.341051	1221.872009	-195.609765	926.804359	1157.932846	-172.447367	546.582278	1332.033985	-679.143678	642.014358	1209.78472	-585.167322	599.12488	1170.963557	-616.223016	
36	0.375	767.848892	1044.255996	-473.688611	757.92537	1053.597284	-248.662373	605.182263	1079.065624	-425.329521	596.784657	1084.091442	-336.589114	646.46817	863.684386	-201.171274	654.51145	727.535885	-220.568886	526.375463	650.832494	-223.740879	774.728156	906.343748	-530.7018890000001	875.417182	829.930345	-510.849696	868.800933	675.8865	-490.470257	415.460621	464.538691	-275.145428	333.303782	473.289692	-227.334554	246.799064	394.27706	-291.016562	976.015088	463.973988	-402.500718	942.272247	351.364429	-449.601597	959.248828	275.242783	-369.389886	98.826038	446.724181	-308.667717	119.810269	228.878129	-314.486753	75.910692	256.36216	-232.09486	861.748485	133.247628	-364.492636	1074.434763	178.808141	-346.011137	1060.921698	134.501125	-430.5198	694.3551639999999	1509.456102	-518.419102	770.955665	1482.993241	-167.179214	829.423532	1451.271797	-344.568287	707.091859	1541.39596	-335.638117	776.871729	1384.894215	-96.069287	810.443383	1324.34196	-91.230143	726.765607	1302.297525	-25.597257	778.4127109999999	1229.56824	2.086146	707.744678	1188.617443	-38.078142	636.890147	1492.206126	-568.710647	563.479296	1466.434763	-550.745953	580.085994	1442.126896	-629.0498710000001	495.804909	1382.093144	-685.129541	440.647546	1366.941587	-615.78471	844.265944	1226.268847	-51.240835	927.602086	1217.456611	-195.779066	923.579788	1153.812449	-171.212629	546.19674	1331.614522	-679.6518139999999	643.252303	1209.545372	-587.104706	599.940273	1170.638132	-617.214778	
37	0.383333	766.898384	1042.344108	-473.643408	756.2283190000001	1051.819484	-248.083776	605.293144	1075.117509	-423.881208	594.442843	1081.751407	-334.614846	653.245325	859.383343	-201.275295	662.1234449999999	724.146667	-222.203083	535.4256350000001	645.900677	-222.839492	772.331374	901.144282	-530.551466	872.211996	821.586558	-512.4778659999999	860.575032	667.621121	-489.24448	417.08593	466.518364	-275.787981	335.606994	481.348093	-227.942063	242.864841	410.539667	-291.667352	973.788436	457.866544	-401.802745	943.014494	344.191398	-447.352144	965.630316	269.407853	-367.116002	98.60383400000001	474.085847	-309.647943	104.767899	255.170906	-311.793011	63.703685	286.808251	-229.658329	874.712315	122.828288	-360.338858	1084.911765	178.796449	-344.708916	1073.093018	132.371368	-427.264087	695.569768	1506.913413	-520.415839	771.605438	1482.123241	-168.750337	829.363801	1449.221114	-346.07655	707.964296	1539.922626	-337.407266	775.185791	1384.605025	-96.860703	809.0031320000001	1324.906153	-90.186081	723.192151	1302.484992	-27.147794	774.548357	1229.060444	1.637688	703.94492	1189.306868	-39.231026	637.8829019999999	1489.957228	-570.408418	564.462268	1463.704512	-551.436827	580.148514	1439.825665	-629.549166	495.56989	1380.191969	-685.262125	440.814084	1364.325057	-615.474283	841.300778	1223.580552	-50.849885	925.6588389999999	1211.58517	-194.975176	919.672802	1148.280647	-169.501038	546.4515720000001	1330.008407	-680.353194	645.615179	1208.593884	-589.5076330000001	602.026514	1169.516921	-618.762641	
